<mxfile host="app.diagrams.net" modified="2022-11-05T16:35:01.638Z" agent="5.0 (X11; Ubuntu)" etag="rMPuOue_Zudj8CBwcS8c" version="20.5.2" type="github" pages="3">
  <diagram id="C5RBs43oDa-KdzZeNtuy" name="Factory Method">
    <mxGraphModel dx="782" dy="1653" grid="1" gridSize="10" guides="1" tooltips="1" connect="1" arrows="1" fold="1" page="1" pageScale="1" pageWidth="827" pageHeight="1169" math="0" shadow="0">
      <root>
        <mxCell id="WIyWlLk6GJQsqaUBKTNV-0" />
        <mxCell id="WIyWlLk6GJQsqaUBKTNV-1" parent="WIyWlLk6GJQsqaUBKTNV-0" />
        <mxCell id="zkfFHV4jXpPFQw0GAbJ--0" value="&lt;&lt;abstract&gt;&gt;&#xa;Dialog" style="swimlane;fontStyle=2;align=center;verticalAlign=top;childLayout=stackLayout;horizontal=1;startSize=40;horizontalStack=0;resizeParent=1;resizeLast=0;collapsible=1;marginBottom=0;rounded=0;shadow=0;strokeWidth=1;fontColor=#E6E6E6;strokeColor=#E6E6E6;" parent="WIyWlLk6GJQsqaUBKTNV-1" vertex="1">
          <mxGeometry x="120" y="120" width="160" height="100" as="geometry">
            <mxRectangle x="230" y="140" width="160" height="26" as="alternateBounds" />
          </mxGeometry>
        </mxCell>
        <mxCell id="zkfFHV4jXpPFQw0GAbJ--4" value="" style="line;html=1;strokeWidth=1;align=left;verticalAlign=middle;spacingTop=-1;spacingLeft=3;spacingRight=3;rotatable=0;labelPosition=right;points=[];portConstraint=eastwest;fontColor=#E6E6E6;strokeColor=#E6E6E6;" parent="zkfFHV4jXpPFQw0GAbJ--0" vertex="1">
          <mxGeometry y="40" width="160" height="8" as="geometry" />
        </mxCell>
        <mxCell id="zkfFHV4jXpPFQw0GAbJ--5" value="+ render()" style="text;align=left;verticalAlign=top;spacingLeft=4;spacingRight=4;overflow=hidden;rotatable=0;points=[[0,0.5],[1,0.5]];portConstraint=eastwest;fontColor=#E6E6E6;strokeColor=#E6E6E6;" parent="zkfFHV4jXpPFQw0GAbJ--0" vertex="1">
          <mxGeometry y="48" width="160" height="26" as="geometry" />
        </mxCell>
        <mxCell id="k-C3hMUkvCa6fPTuD9LT-3" value="+ createButton(): Button" style="text;align=left;verticalAlign=top;spacingLeft=4;spacingRight=4;overflow=hidden;rotatable=0;points=[[0,0.5],[1,0.5]];portConstraint=eastwest;fontStyle=2;fontColor=#E6E6E6;strokeColor=#E6E6E6;" parent="zkfFHV4jXpPFQw0GAbJ--0" vertex="1">
          <mxGeometry y="74" width="160" height="26" as="geometry" />
        </mxCell>
        <mxCell id="zkfFHV4jXpPFQw0GAbJ--6" value="Dialog&#xa;Windown" style="swimlane;fontStyle=0;align=center;verticalAlign=top;childLayout=stackLayout;horizontal=1;startSize=40;horizontalStack=0;resizeParent=1;resizeLast=0;collapsible=1;marginBottom=0;rounded=0;shadow=0;strokeWidth=1;strokeColor=#E6E6E6;fontColor=#E6E6E6;" parent="WIyWlLk6GJQsqaUBKTNV-1" vertex="1">
          <mxGeometry x="20" y="310" width="160" height="80" as="geometry">
            <mxRectangle x="130" y="380" width="160" height="26" as="alternateBounds" />
          </mxGeometry>
        </mxCell>
        <mxCell id="zkfFHV4jXpPFQw0GAbJ--9" value="" style="line;html=1;strokeWidth=1;align=left;verticalAlign=middle;spacingTop=-1;spacingLeft=3;spacingRight=3;rotatable=0;labelPosition=right;points=[];portConstraint=eastwest;strokeColor=#E6E6E6;fontColor=#E6E6E6;" parent="zkfFHV4jXpPFQw0GAbJ--6" vertex="1">
          <mxGeometry y="40" width="160" height="8" as="geometry" />
        </mxCell>
        <mxCell id="zkfFHV4jXpPFQw0GAbJ--11" value="+ createButton(): Button" style="text;align=left;verticalAlign=top;spacingLeft=4;spacingRight=4;overflow=hidden;rotatable=0;points=[[0,0.5],[1,0.5]];portConstraint=eastwest;strokeColor=#E6E6E6;fontColor=#E6E6E6;" parent="zkfFHV4jXpPFQw0GAbJ--6" vertex="1">
          <mxGeometry y="48" width="160" height="26" as="geometry" />
        </mxCell>
        <mxCell id="zkfFHV4jXpPFQw0GAbJ--12" value="" style="endArrow=block;endSize=10;endFill=0;shadow=0;strokeWidth=1;rounded=0;edgeStyle=elbowEdgeStyle;elbow=vertical;exitX=0.5;exitY=0;exitDx=0;exitDy=0;entryX=0.5;entryY=1;entryDx=0;entryDy=0;strokeColor=#E6E6E6;fontColor=#E6E6E6;" parent="WIyWlLk6GJQsqaUBKTNV-1" source="zkfFHV4jXpPFQw0GAbJ--6" target="zkfFHV4jXpPFQw0GAbJ--0" edge="1">
          <mxGeometry width="160" relative="1" as="geometry">
            <mxPoint x="100" y="280" as="sourcePoint" />
            <mxPoint x="150" y="250" as="targetPoint" />
            <Array as="points">
              <mxPoint x="150" y="290" />
            </Array>
          </mxGeometry>
        </mxCell>
        <mxCell id="zkfFHV4jXpPFQw0GAbJ--16" value="" style="endArrow=block;endSize=10;endFill=0;shadow=0;strokeWidth=1;rounded=0;edgeStyle=elbowEdgeStyle;elbow=vertical;exitX=0.563;exitY=0;exitDx=0;exitDy=0;exitPerimeter=0;entryX=0.5;entryY=1;entryDx=0;entryDy=0;strokeColor=#E6E6E6;fontColor=#E6E6E6;" parent="WIyWlLk6GJQsqaUBKTNV-1" source="k-C3hMUkvCa6fPTuD9LT-14" target="zkfFHV4jXpPFQw0GAbJ--0" edge="1">
          <mxGeometry width="160" relative="1" as="geometry">
            <mxPoint x="300" y="360" as="sourcePoint" />
            <mxPoint x="200" y="271" as="targetPoint" />
            <Array as="points">
              <mxPoint x="240" y="290" />
            </Array>
          </mxGeometry>
        </mxCell>
        <mxCell id="k-C3hMUkvCa6fPTuD9LT-8" value="" style="edgeStyle=orthogonalEdgeStyle;rounded=0;orthogonalLoop=1;jettySize=auto;html=1;dashed=1;endArrow=block;endFill=0;entryX=0.5;entryY=1;entryDx=0;entryDy=0;exitX=0.5;exitY=0;exitDx=0;exitDy=0;fontColor=#E6E6E6;strokeColor=#E6E6E6;" parent="WIyWlLk6GJQsqaUBKTNV-1" source="k-C3hMUkvCa6fPTuD9LT-4" target="zkfFHV4jXpPFQw0GAbJ--17" edge="1">
          <mxGeometry relative="1" as="geometry">
            <Array as="points">
              <mxPoint x="498" y="290" />
              <mxPoint x="600" y="290" />
            </Array>
          </mxGeometry>
        </mxCell>
        <mxCell id="zkfFHV4jXpPFQw0GAbJ--17" value="&lt;&lt;interface&gt;&gt;&#xa;Button" style="swimlane;fontStyle=0;align=center;verticalAlign=top;childLayout=stackLayout;horizontal=1;startSize=40;horizontalStack=0;resizeParent=1;resizeLast=0;collapsible=1;marginBottom=0;rounded=0;shadow=0;strokeWidth=1;fontColor=#E6E6E6;strokeColor=#E6E6E6;" parent="WIyWlLk6GJQsqaUBKTNV-1" vertex="1">
          <mxGeometry x="520" y="134" width="160" height="110" as="geometry">
            <mxRectangle x="550" y="140" width="160" height="26" as="alternateBounds" />
          </mxGeometry>
        </mxCell>
        <mxCell id="zkfFHV4jXpPFQw0GAbJ--23" value="" style="line;html=1;strokeWidth=1;align=left;verticalAlign=middle;spacingTop=-1;spacingLeft=3;spacingRight=3;rotatable=0;labelPosition=right;points=[];portConstraint=eastwest;fontColor=#E6E6E6;strokeColor=#E6E6E6;" parent="zkfFHV4jXpPFQw0GAbJ--17" vertex="1">
          <mxGeometry y="40" width="160" height="8" as="geometry" />
        </mxCell>
        <mxCell id="zkfFHV4jXpPFQw0GAbJ--24" value="+ render()" style="text;align=left;verticalAlign=top;spacingLeft=4;spacingRight=4;overflow=hidden;rotatable=0;points=[[0,0.5],[1,0.5]];portConstraint=eastwest;fontColor=#E6E6E6;strokeColor=#E6E6E6;" parent="zkfFHV4jXpPFQw0GAbJ--17" vertex="1">
          <mxGeometry y="48" width="160" height="26" as="geometry" />
        </mxCell>
        <mxCell id="zkfFHV4jXpPFQw0GAbJ--25" value="+ onClick()" style="text;align=left;verticalAlign=top;spacingLeft=4;spacingRight=4;overflow=hidden;rotatable=0;points=[[0,0.5],[1,0.5]];portConstraint=eastwest;fontColor=#E6E6E6;strokeColor=#E6E6E6;" parent="zkfFHV4jXpPFQw0GAbJ--17" vertex="1">
          <mxGeometry y="74" width="160" height="26" as="geometry" />
        </mxCell>
        <mxCell id="zkfFHV4jXpPFQw0GAbJ--26" value="" style="endArrow=open;shadow=0;strokeWidth=1;rounded=0;endFill=1;edgeStyle=elbowEdgeStyle;elbow=vertical;dashed=1;exitX=1;exitY=0.5;exitDx=0;exitDy=0;entryX=0.013;entryY=0.962;entryDx=0;entryDy=0;entryPerimeter=0;fontColor=#E6E6E6;strokeColor=#E6E6E6;" parent="WIyWlLk6GJQsqaUBKTNV-1" source="k-C3hMUkvCa6fPTuD9LT-3" target="zkfFHV4jXpPFQw0GAbJ--24" edge="1">
          <mxGeometry x="0.5" y="41" relative="1" as="geometry">
            <mxPoint x="350" y="180" as="sourcePoint" />
            <mxPoint x="470" y="210" as="targetPoint" />
            <mxPoint x="-40" y="32" as="offset" />
            <Array as="points">
              <mxPoint x="390" y="207" />
            </Array>
          </mxGeometry>
        </mxCell>
        <mxCell id="k-C3hMUkvCa6fPTuD9LT-4" value="Button&#xa;Windown" style="swimlane;fontStyle=0;align=center;verticalAlign=top;childLayout=stackLayout;horizontal=1;startSize=40;horizontalStack=0;resizeParent=1;resizeLast=0;collapsible=1;marginBottom=0;rounded=0;shadow=0;strokeWidth=1;fontColor=#E6E6E6;strokeColor=#E6E6E6;" parent="WIyWlLk6GJQsqaUBKTNV-1" vertex="1">
          <mxGeometry x="418" y="310" width="160" height="110" as="geometry">
            <mxRectangle x="550" y="140" width="160" height="26" as="alternateBounds" />
          </mxGeometry>
        </mxCell>
        <mxCell id="k-C3hMUkvCa6fPTuD9LT-5" value="" style="line;html=1;strokeWidth=1;align=left;verticalAlign=middle;spacingTop=-1;spacingLeft=3;spacingRight=3;rotatable=0;labelPosition=right;points=[];portConstraint=eastwest;fontColor=#E6E6E6;strokeColor=#E6E6E6;" parent="k-C3hMUkvCa6fPTuD9LT-4" vertex="1">
          <mxGeometry y="40" width="160" height="8" as="geometry" />
        </mxCell>
        <mxCell id="k-C3hMUkvCa6fPTuD9LT-6" value="+ render()" style="text;align=left;verticalAlign=top;spacingLeft=4;spacingRight=4;overflow=hidden;rotatable=0;points=[[0,0.5],[1,0.5]];portConstraint=eastwest;fontColor=#E6E6E6;strokeColor=#E6E6E6;" parent="k-C3hMUkvCa6fPTuD9LT-4" vertex="1">
          <mxGeometry y="48" width="160" height="26" as="geometry" />
        </mxCell>
        <mxCell id="k-C3hMUkvCa6fPTuD9LT-7" value="+ onClick()" style="text;align=left;verticalAlign=top;spacingLeft=4;spacingRight=4;overflow=hidden;rotatable=0;points=[[0,0.5],[1,0.5]];portConstraint=eastwest;fontColor=#E6E6E6;strokeColor=#E6E6E6;" parent="k-C3hMUkvCa6fPTuD9LT-4" vertex="1">
          <mxGeometry y="74" width="160" height="26" as="geometry" />
        </mxCell>
        <mxCell id="k-C3hMUkvCa6fPTuD9LT-13" style="edgeStyle=orthogonalEdgeStyle;rounded=0;orthogonalLoop=1;jettySize=auto;html=1;entryX=0.5;entryY=1;entryDx=0;entryDy=0;dashed=1;endArrow=block;endFill=0;fontColor=#E6E6E6;strokeColor=#E6E6E6;" parent="WIyWlLk6GJQsqaUBKTNV-1" source="k-C3hMUkvCa6fPTuD9LT-9" target="zkfFHV4jXpPFQw0GAbJ--17" edge="1">
          <mxGeometry relative="1" as="geometry">
            <Array as="points">
              <mxPoint x="690" y="290" />
              <mxPoint x="600" y="290" />
            </Array>
          </mxGeometry>
        </mxCell>
        <mxCell id="k-C3hMUkvCa6fPTuD9LT-9" value="Button&#xa;Linux" style="swimlane;fontStyle=0;align=center;verticalAlign=top;childLayout=stackLayout;horizontal=1;startSize=40;horizontalStack=0;resizeParent=1;resizeLast=0;collapsible=1;marginBottom=0;rounded=0;shadow=0;strokeWidth=1;fontColor=#E6E6E6;strokeColor=#E6E6E6;" parent="WIyWlLk6GJQsqaUBKTNV-1" vertex="1">
          <mxGeometry x="610" y="310" width="160" height="110" as="geometry">
            <mxRectangle x="550" y="140" width="160" height="26" as="alternateBounds" />
          </mxGeometry>
        </mxCell>
        <mxCell id="k-C3hMUkvCa6fPTuD9LT-10" value="" style="line;html=1;strokeWidth=1;align=left;verticalAlign=middle;spacingTop=-1;spacingLeft=3;spacingRight=3;rotatable=0;labelPosition=right;points=[];portConstraint=eastwest;fontColor=#E6E6E6;strokeColor=#E6E6E6;" parent="k-C3hMUkvCa6fPTuD9LT-9" vertex="1">
          <mxGeometry y="40" width="160" height="8" as="geometry" />
        </mxCell>
        <mxCell id="k-C3hMUkvCa6fPTuD9LT-11" value="+ render()" style="text;align=left;verticalAlign=top;spacingLeft=4;spacingRight=4;overflow=hidden;rotatable=0;points=[[0,0.5],[1,0.5]];portConstraint=eastwest;fontColor=#E6E6E6;strokeColor=#E6E6E6;" parent="k-C3hMUkvCa6fPTuD9LT-9" vertex="1">
          <mxGeometry y="48" width="160" height="26" as="geometry" />
        </mxCell>
        <mxCell id="k-C3hMUkvCa6fPTuD9LT-12" value="+ onClick()" style="text;align=left;verticalAlign=top;spacingLeft=4;spacingRight=4;overflow=hidden;rotatable=0;points=[[0,0.5],[1,0.5]];portConstraint=eastwest;fontColor=#E6E6E6;strokeColor=#E6E6E6;" parent="k-C3hMUkvCa6fPTuD9LT-9" vertex="1">
          <mxGeometry y="74" width="160" height="26" as="geometry" />
        </mxCell>
        <mxCell id="k-C3hMUkvCa6fPTuD9LT-14" value="Dialog&#xa;Linux" style="swimlane;fontStyle=0;align=center;verticalAlign=top;childLayout=stackLayout;horizontal=1;startSize=40;horizontalStack=0;resizeParent=1;resizeLast=0;collapsible=1;marginBottom=0;rounded=0;shadow=0;strokeWidth=1;strokeColor=#E6E6E6;fontColor=#E6E6E6;" parent="WIyWlLk6GJQsqaUBKTNV-1" vertex="1">
          <mxGeometry x="210" y="310" width="160" height="80" as="geometry">
            <mxRectangle x="130" y="380" width="160" height="26" as="alternateBounds" />
          </mxGeometry>
        </mxCell>
        <mxCell id="k-C3hMUkvCa6fPTuD9LT-15" value="" style="line;html=1;strokeWidth=1;align=left;verticalAlign=middle;spacingTop=-1;spacingLeft=3;spacingRight=3;rotatable=0;labelPosition=right;points=[];portConstraint=eastwest;strokeColor=#E6E6E6;fontColor=#E6E6E6;" parent="k-C3hMUkvCa6fPTuD9LT-14" vertex="1">
          <mxGeometry y="40" width="160" height="8" as="geometry" />
        </mxCell>
        <mxCell id="k-C3hMUkvCa6fPTuD9LT-16" value="+ createButton(): Button" style="text;align=left;verticalAlign=top;spacingLeft=4;spacingRight=4;overflow=hidden;rotatable=0;points=[[0,0.5],[1,0.5]];portConstraint=eastwest;fontColor=#E6E6E6;strokeColor=#E6E6E6;" parent="k-C3hMUkvCa6fPTuD9LT-14" vertex="1">
          <mxGeometry y="48" width="160" height="26" as="geometry" />
        </mxCell>
        <mxCell id="4-g5KckkrZ230mikaVaq-2" style="edgeStyle=orthogonalEdgeStyle;rounded=0;orthogonalLoop=1;jettySize=auto;html=1;exitX=0.5;exitY=0;exitDx=0;exitDy=0;exitPerimeter=0;entryX=0.375;entryY=0.846;entryDx=0;entryDy=0;entryPerimeter=0;dashed=1;fontSize=11;fontColor=#E6E6E6;endArrow=none;endFill=0;strokeColor=#E6E6E6;" parent="WIyWlLk6GJQsqaUBKTNV-1" source="4-g5KckkrZ230mikaVaq-1" target="zkfFHV4jXpPFQw0GAbJ--11" edge="1">
          <mxGeometry relative="1" as="geometry" />
        </mxCell>
        <mxCell id="4-g5KckkrZ230mikaVaq-1" value="&lt;b&gt;return&lt;/b&gt; &lt;b&gt;new&lt;/b&gt; ButtonWindown()" style="shape=note;whiteSpace=wrap;html=1;backgroundOutline=1;darkOpacity=0.05;align=left;fontSize=11;size=10;fillColor=#000000;fontColor=#E6E6E6;strokeColor=#E6E6E6;" parent="WIyWlLk6GJQsqaUBKTNV-1" vertex="1">
          <mxGeometry x="20" y="400" width="150" height="30" as="geometry" />
        </mxCell>
        <mxCell id="4-g5KckkrZ230mikaVaq-3" value="//Chama o método de fábrica, para criar o produto apropriado para a lógica do render. O método fabrica é só um meio, para um fim mais abstrato, para atender a lógica do render.&lt;br&gt;&lt;br&gt;Button okBtn = creteButton()&lt;br&gt;okBtn.onClick()&lt;br&gt;okBtn.render()" style="shape=note;whiteSpace=wrap;html=1;backgroundOutline=1;darkOpacity=0.05;align=left;fontSize=11;size=10;fillColor=#000000;fontColor=#E6E6E6;strokeColor=#E6E6E6;" parent="WIyWlLk6GJQsqaUBKTNV-1" vertex="1">
          <mxGeometry x="29" width="441" height="110" as="geometry" />
        </mxCell>
        <mxCell id="4-g5KckkrZ230mikaVaq-4" style="edgeStyle=orthogonalEdgeStyle;rounded=0;orthogonalLoop=1;jettySize=auto;html=1;dashed=1;fontSize=11;fontColor=#E6E6E6;endArrow=none;endFill=0;entryX=0;entryY=1;entryDx=0;entryDy=0;entryPerimeter=0;exitX=0;exitY=0.5;exitDx=0;exitDy=0;strokeColor=#E6E6E6;" parent="WIyWlLk6GJQsqaUBKTNV-1" source="zkfFHV4jXpPFQw0GAbJ--5" target="4-g5KckkrZ230mikaVaq-3" edge="1">
          <mxGeometry relative="1" as="geometry">
            <mxPoint x="60" y="180" as="sourcePoint" />
            <mxPoint x="40" y="120" as="targetPoint" />
            <Array as="points">
              <mxPoint x="120" y="180" />
              <mxPoint x="30" y="180" />
            </Array>
          </mxGeometry>
        </mxCell>
        <mxCell id="4-g5KckkrZ230mikaVaq-5" value="&lt;font&gt;&lt;b&gt;class&lt;/b&gt; Application &lt;b&gt;is&lt;/b&gt;&lt;br&gt;&lt;span style=&quot;white-space: pre;&quot;&gt; &lt;/span&gt;dialog: Dialog&lt;br&gt;&lt;br&gt;&lt;span style=&quot;white-space: pre;&quot;&gt; &lt;/span&gt;Application()&amp;nbsp;&lt;b&gt;is&lt;/b&gt;&lt;br&gt;&lt;span style=&quot;white-space: pre;&quot;&gt; &lt;/span&gt;&lt;span style=&quot;white-space: pre;&quot;&gt; &lt;/span&gt;&lt;b&gt;this&lt;/b&gt;.dialog = &lt;b&gt;switch&lt;/b&gt; ( ConfigFileSystem.OS ) &lt;b&gt;is&lt;/b&gt;&lt;br&gt;&lt;span style=&quot;white-space: pre;&quot;&gt; &lt;/span&gt;&lt;span style=&quot;white-space: pre;&quot;&gt; &lt;/span&gt;&lt;span style=&quot;white-space: pre;&quot;&gt; &lt;span style=&quot;white-space: pre;&quot;&gt; &lt;/span&gt;&lt;span style=&quot;white-space: pre;&quot;&gt; &lt;span style=&quot;white-space: pre;&quot;&gt; &lt;/span&gt;&lt;/span&gt;&lt;/span&gt;&quot;Windows&quot; : &lt;b&gt;new&lt;/b&gt; DialogWindown()&lt;br&gt;&lt;span style=&quot;white-space: pre;&quot;&gt; &lt;/span&gt;&lt;span style=&quot;white-space: pre;&quot;&gt; &lt;/span&gt;&lt;span style=&quot;white-space: pre;&quot;&gt; &lt;span style=&quot;white-space: pre;&quot;&gt; &lt;/span&gt;&lt;span style=&quot;white-space: pre;&quot;&gt; &lt;span style=&quot;white-space: pre;&quot;&gt; &lt;/span&gt;&lt;/span&gt;&lt;/span&gt;&quot;Linux&quot; : &lt;b&gt;new&lt;/b&gt; DialogLinux()&lt;br&gt;&lt;span style=&quot;white-space: pre;&quot;&gt; &lt;/span&gt;&lt;span style=&quot;white-space: pre;&quot;&gt; &lt;/span&gt;&lt;span style=&quot;white-space: pre;&quot;&gt; &lt;span style=&quot;white-space: pre;&quot;&gt; &lt;/span&gt;&lt;span style=&quot;white-space: pre;&quot;&gt; &lt;span style=&quot;white-space: pre;&quot;&gt; &lt;/span&gt;&lt;/span&gt;&lt;/span&gt;&lt;b&gt;else&lt;/b&gt; : &lt;b&gt;throw new&lt;/b&gt; Exception(&quot;Unknown operating system.&quot;)&lt;br&gt;&lt;span style=&quot;white-space: pre;&quot;&gt; &lt;/span&gt;&lt;br&gt;&lt;span style=&quot;white-space: pre;&quot;&gt; &lt;/span&gt;&lt;b&gt;method&lt;/b&gt; main() &lt;b&gt;is&lt;/b&gt;&lt;br&gt;&lt;span style=&quot;white-space: pre;&quot;&gt; &lt;/span&gt;&lt;span style=&quot;white-space: pre;&quot;&gt; &lt;/span&gt;app = &lt;b&gt;new&lt;/b&gt; Application()&lt;br&gt;&lt;span style=&quot;white-space: pre;&quot;&gt; &lt;/span&gt;&lt;span style=&quot;white-space: pre;&quot;&gt; &lt;/span&gt;app.dialog.render()&lt;br&gt;&lt;br&gt;&lt;/font&gt;" style="shape=note;whiteSpace=wrap;html=1;backgroundOutline=1;darkOpacity=0.05;align=left;fontSize=11;size=10;fillColor=#000000;fontColor=#E6E6E6;strokeColor=#E6E6E6;verticalAlign=top;" parent="WIyWlLk6GJQsqaUBKTNV-1" vertex="1">
          <mxGeometry x="20" y="480" width="750" height="210" as="geometry" />
        </mxCell>
        <mxCell id="aQSBk3LIoLAffi5T2jlN-0" value="&lt;h1&gt;Factory Method&lt;/h1&gt;&lt;p&gt;Gear objetos a partir de um método, que são definidos por meio de uma interface. Não precisamos gerar novas instâncias o tempo todo, podemos retorna-los de uma fonte, como cache, etc..&lt;/p&gt;" style="text;html=1;strokeColor=#E6E6E6;fillColor=none;spacing=5;spacingTop=-20;whiteSpace=wrap;overflow=hidden;rounded=0;fontSize=11;fontColor=#E6E6E6;" parent="WIyWlLk6GJQsqaUBKTNV-1" vertex="1">
          <mxGeometry x="512" width="315" height="120" as="geometry" />
        </mxCell>
      </root>
    </mxGraphModel>
  </diagram>
  <diagram id="BomtLqVlqRJRR5CAD61R" name="Abstract Factory">
    <mxGraphModel dx="782" dy="484" grid="1" gridSize="10" guides="1" tooltips="1" connect="1" arrows="1" fold="1" page="1" pageScale="1" pageWidth="827" pageHeight="1169" math="0" shadow="0">
      <root>
        <mxCell id="0" />
        <mxCell id="1" parent="0" />
        <mxCell id="tleChEqnYoVJlQqiPh8k-5" value="" style="edgeStyle=orthogonalEdgeStyle;rounded=0;orthogonalLoop=1;jettySize=auto;html=1;dashed=1;strokeColor=#E6E6E6;fontSize=11;fontColor=#E6E6E6;endArrow=none;endFill=0;startArrow=block;startFill=0;" parent="1" source="zZGIEH45paqE8WZlSoHH-1" target="tleChEqnYoVJlQqiPh8k-1" edge="1">
          <mxGeometry relative="1" as="geometry" />
        </mxCell>
        <mxCell id="zZGIEH45paqE8WZlSoHH-1" value="&lt;&lt;interface&gt;&gt;&#xa;GUIFactory" style="swimlane;fontStyle=0;align=center;verticalAlign=top;childLayout=stackLayout;horizontal=1;startSize=40;horizontalStack=0;resizeParent=1;resizeLast=0;collapsible=1;marginBottom=0;rounded=0;shadow=0;strokeWidth=1;fontColor=#E6E6E6;strokeColor=#E6E6E6;" parent="1" vertex="1">
          <mxGeometry x="740" y="180" width="190" height="110" as="geometry">
            <mxRectangle x="550" y="140" width="160" height="26" as="alternateBounds" />
          </mxGeometry>
        </mxCell>
        <mxCell id="zZGIEH45paqE8WZlSoHH-2" value="" style="line;html=1;strokeWidth=1;align=left;verticalAlign=middle;spacingTop=-1;spacingLeft=3;spacingRight=3;rotatable=0;labelPosition=right;points=[];portConstraint=eastwest;strokeColor=#E6E6E6;fontColor=#E6E6E6;" parent="zZGIEH45paqE8WZlSoHH-1" vertex="1">
          <mxGeometry y="40" width="190" height="8" as="geometry" />
        </mxCell>
        <mxCell id="zZGIEH45paqE8WZlSoHH-3" value="+ createButton(): Button" style="text;align=left;verticalAlign=top;spacingLeft=4;spacingRight=4;overflow=hidden;rotatable=0;points=[[0,0.5],[1,0.5]];portConstraint=eastwest;fontColor=#E6E6E6;strokeColor=#E6E6E6;" parent="zZGIEH45paqE8WZlSoHH-1" vertex="1">
          <mxGeometry y="48" width="190" height="26" as="geometry" />
        </mxCell>
        <mxCell id="zZGIEH45paqE8WZlSoHH-4" value="+ createCheckbox(): Checkbox" style="text;align=left;verticalAlign=top;spacingLeft=4;spacingRight=4;overflow=hidden;rotatable=0;points=[[0,0.5],[1,0.5]];portConstraint=eastwest;fontColor=#E6E6E6;strokeColor=#E6E6E6;" parent="zZGIEH45paqE8WZlSoHH-1" vertex="1">
          <mxGeometry y="74" width="190" height="26" as="geometry" />
        </mxCell>
        <mxCell id="tleChEqnYoVJlQqiPh8k-1" value="WindownFactory" style="swimlane;fontStyle=0;align=center;verticalAlign=top;childLayout=stackLayout;horizontal=1;startSize=40;horizontalStack=0;resizeParent=1;resizeLast=0;collapsible=1;marginBottom=0;rounded=0;shadow=0;strokeWidth=1;strokeColor=#E6E6E6;fontColor=#E6E6E6;" parent="1" vertex="1">
          <mxGeometry x="637" y="380" width="190" height="110" as="geometry">
            <mxRectangle x="550" y="140" width="160" height="26" as="alternateBounds" />
          </mxGeometry>
        </mxCell>
        <mxCell id="tleChEqnYoVJlQqiPh8k-2" value="" style="line;html=1;strokeWidth=1;align=left;verticalAlign=middle;spacingTop=-1;spacingLeft=3;spacingRight=3;rotatable=0;labelPosition=right;points=[];portConstraint=eastwest;strokeColor=#E6E6E6;fontColor=#E6E6E6;" parent="tleChEqnYoVJlQqiPh8k-1" vertex="1">
          <mxGeometry y="40" width="190" height="8" as="geometry" />
        </mxCell>
        <mxCell id="tleChEqnYoVJlQqiPh8k-3" value="+ createButton(): Button" style="text;align=left;verticalAlign=top;spacingLeft=4;spacingRight=4;overflow=hidden;rotatable=0;points=[[0,0.5],[1,0.5]];portConstraint=eastwest;fontColor=#E6E6E6;strokeColor=#E6E6E6;" parent="tleChEqnYoVJlQqiPh8k-1" vertex="1">
          <mxGeometry y="48" width="190" height="26" as="geometry" />
        </mxCell>
        <mxCell id="tleChEqnYoVJlQqiPh8k-4" value="+ createCheckbox(): Checkbox" style="text;align=left;verticalAlign=top;spacingLeft=4;spacingRight=4;overflow=hidden;rotatable=0;points=[[0,0.5],[1,0.5]];portConstraint=eastwest;fontColor=#E6E6E6;strokeColor=#E6E6E6;" parent="tleChEqnYoVJlQqiPh8k-1" vertex="1">
          <mxGeometry y="74" width="190" height="26" as="geometry" />
        </mxCell>
        <mxCell id="tleChEqnYoVJlQqiPh8k-14" value="" style="edgeStyle=orthogonalEdgeStyle;rounded=0;orthogonalLoop=1;jettySize=auto;html=1;strokeColor=#E6E6E6;fontSize=11;fontColor=#E6E6E6;startArrow=block;startFill=0;endArrow=none;endFill=0;" parent="1" source="tleChEqnYoVJlQqiPh8k-6" target="tleChEqnYoVJlQqiPh8k-12" edge="1">
          <mxGeometry relative="1" as="geometry" />
        </mxCell>
        <mxCell id="tleChEqnYoVJlQqiPh8k-6" value="&lt;&lt;abstract&gt;&gt;&#xa;Button" style="swimlane;fontStyle=2;align=center;verticalAlign=top;childLayout=stackLayout;horizontal=1;startSize=40;horizontalStack=0;resizeParent=1;resizeLast=0;collapsible=1;marginBottom=0;rounded=0;shadow=0;strokeWidth=1;strokeColor=#E6E6E6;fontColor=#E6E6E6;" parent="1" vertex="1">
          <mxGeometry x="90" y="290" width="100" height="48" as="geometry">
            <mxRectangle x="550" y="140" width="160" height="26" as="alternateBounds" />
          </mxGeometry>
        </mxCell>
        <mxCell id="tleChEqnYoVJlQqiPh8k-7" value="" style="line;html=1;strokeWidth=1;align=left;verticalAlign=middle;spacingTop=-1;spacingLeft=3;spacingRight=3;rotatable=0;labelPosition=right;points=[];portConstraint=eastwest;strokeColor=#E6E6E6;fontColor=#E6E6E6;" parent="tleChEqnYoVJlQqiPh8k-6" vertex="1">
          <mxGeometry y="40" width="100" height="8" as="geometry" />
        </mxCell>
        <mxCell id="tleChEqnYoVJlQqiPh8k-17" value="" style="edgeStyle=orthogonalEdgeStyle;rounded=0;orthogonalLoop=1;jettySize=auto;html=1;strokeColor=#E6E6E6;fontSize=11;fontColor=#E6E6E6;startArrow=block;startFill=0;endArrow=none;endFill=0;exitX=0.5;exitY=1;exitDx=0;exitDy=0;entryX=0.5;entryY=0;entryDx=0;entryDy=0;" parent="1" source="tleChEqnYoVJlQqiPh8k-10" target="tleChEqnYoVJlQqiPh8k-15" edge="1">
          <mxGeometry relative="1" as="geometry">
            <mxPoint x="417" y="380" as="sourcePoint" />
            <mxPoint x="371" y="420" as="targetPoint" />
          </mxGeometry>
        </mxCell>
        <mxCell id="tleChEqnYoVJlQqiPh8k-10" value="&lt;&lt;abstract&gt;&gt;&#xa;Checkbox" style="swimlane;fontStyle=2;align=center;verticalAlign=top;childLayout=stackLayout;horizontal=1;startSize=40;horizontalStack=0;resizeParent=1;resizeLast=0;collapsible=1;marginBottom=0;rounded=0;shadow=0;strokeWidth=1;strokeColor=#E6E6E6;fontColor=#E6E6E6;" parent="1" vertex="1">
          <mxGeometry x="401" y="290" width="100" height="48" as="geometry">
            <mxRectangle x="550" y="140" width="160" height="26" as="alternateBounds" />
          </mxGeometry>
        </mxCell>
        <mxCell id="tleChEqnYoVJlQqiPh8k-11" value="" style="line;html=1;strokeWidth=1;align=left;verticalAlign=middle;spacingTop=-1;spacingLeft=3;spacingRight=3;rotatable=0;labelPosition=right;points=[];portConstraint=eastwest;strokeColor=#E6E6E6;fontColor=#E6E6E6;" parent="tleChEqnYoVJlQqiPh8k-10" vertex="1">
          <mxGeometry y="40" width="100" height="8" as="geometry" />
        </mxCell>
        <mxCell id="tleChEqnYoVJlQqiPh8k-12" value="WindownButton" style="swimlane;fontStyle=0;align=center;verticalAlign=top;childLayout=stackLayout;horizontal=1;startSize=30;horizontalStack=0;resizeParent=1;resizeLast=0;collapsible=1;marginBottom=0;rounded=0;shadow=0;strokeWidth=1;strokeColor=#E6E6E6;fontColor=#E6E6E6;" parent="1" vertex="1">
          <mxGeometry x="10" y="420" width="120" height="40" as="geometry">
            <mxRectangle x="550" y="140" width="160" height="26" as="alternateBounds" />
          </mxGeometry>
        </mxCell>
        <mxCell id="tleChEqnYoVJlQqiPh8k-13" value="" style="line;html=1;strokeWidth=1;align=left;verticalAlign=middle;spacingTop=-1;spacingLeft=3;spacingRight=3;rotatable=0;labelPosition=right;points=[];portConstraint=eastwest;strokeColor=#E6E6E6;fontColor=#E6E6E6;" parent="tleChEqnYoVJlQqiPh8k-12" vertex="1">
          <mxGeometry y="30" width="120" height="8" as="geometry" />
        </mxCell>
        <mxCell id="tleChEqnYoVJlQqiPh8k-15" value="WindownCheckbox" style="swimlane;fontStyle=0;align=center;verticalAlign=top;childLayout=stackLayout;horizontal=1;startSize=30;horizontalStack=0;resizeParent=1;resizeLast=0;collapsible=1;marginBottom=0;rounded=0;shadow=0;strokeWidth=1;strokeColor=#E6E6E6;fontColor=#E6E6E6;" parent="1" vertex="1">
          <mxGeometry x="290" y="420" width="140" height="40" as="geometry">
            <mxRectangle x="550" y="140" width="160" height="26" as="alternateBounds" />
          </mxGeometry>
        </mxCell>
        <mxCell id="tleChEqnYoVJlQqiPh8k-16" value="" style="line;html=1;strokeWidth=1;align=left;verticalAlign=middle;spacingTop=-1;spacingLeft=3;spacingRight=3;rotatable=0;labelPosition=right;points=[];portConstraint=eastwest;strokeColor=#E6E6E6;fontColor=#E6E6E6;" parent="tleChEqnYoVJlQqiPh8k-15" vertex="1">
          <mxGeometry y="30" width="140" height="8" as="geometry" />
        </mxCell>
        <mxCell id="tleChEqnYoVJlQqiPh8k-18" value="" style="edgeStyle=orthogonalEdgeStyle;rounded=0;orthogonalLoop=1;jettySize=auto;html=1;dashed=1;strokeColor=#E6E6E6;fontSize=11;fontColor=#E6E6E6;endArrow=open;endFill=0;startArrow=none;startFill=0;entryX=0.75;entryY=0;entryDx=0;entryDy=0;exitX=0;exitY=0.5;exitDx=0;exitDy=0;" parent="1" source="zZGIEH45paqE8WZlSoHH-4" target="tleChEqnYoVJlQqiPh8k-10" edge="1">
          <mxGeometry relative="1" as="geometry">
            <mxPoint x="690" y="260" as="sourcePoint" />
            <mxPoint x="562" y="370" as="targetPoint" />
          </mxGeometry>
        </mxCell>
        <mxCell id="tleChEqnYoVJlQqiPh8k-19" value="" style="edgeStyle=orthogonalEdgeStyle;rounded=0;orthogonalLoop=1;jettySize=auto;html=1;dashed=1;strokeColor=#E6E6E6;fontSize=11;fontColor=#E6E6E6;endArrow=open;endFill=0;startArrow=none;startFill=0;entryX=0.75;entryY=0;entryDx=0;entryDy=0;exitX=0;exitY=0.5;exitDx=0;exitDy=0;" parent="1" source="zZGIEH45paqE8WZlSoHH-3" target="tleChEqnYoVJlQqiPh8k-6" edge="1">
          <mxGeometry relative="1" as="geometry">
            <mxPoint x="370" y="267" as="sourcePoint" />
            <mxPoint x="275" y="300" as="targetPoint" />
          </mxGeometry>
        </mxCell>
        <mxCell id="tleChEqnYoVJlQqiPh8k-20" value="LinuxCheckbox" style="swimlane;fontStyle=0;align=center;verticalAlign=top;childLayout=stackLayout;horizontal=1;startSize=30;horizontalStack=0;resizeParent=1;resizeLast=0;collapsible=1;marginBottom=0;rounded=0;shadow=0;strokeWidth=1;strokeColor=#E6E6E6;fontColor=#E6E6E6;" parent="1" vertex="1">
          <mxGeometry x="451" y="420" width="140" height="40" as="geometry">
            <mxRectangle x="550" y="140" width="160" height="26" as="alternateBounds" />
          </mxGeometry>
        </mxCell>
        <mxCell id="tleChEqnYoVJlQqiPh8k-21" value="" style="line;html=1;strokeWidth=1;align=left;verticalAlign=middle;spacingTop=-1;spacingLeft=3;spacingRight=3;rotatable=0;labelPosition=right;points=[];portConstraint=eastwest;strokeColor=#E6E6E6;fontColor=#E6E6E6;" parent="tleChEqnYoVJlQqiPh8k-20" vertex="1">
          <mxGeometry y="30" width="140" height="8" as="geometry" />
        </mxCell>
        <mxCell id="tleChEqnYoVJlQqiPh8k-22" value="" style="edgeStyle=orthogonalEdgeStyle;rounded=0;orthogonalLoop=1;jettySize=auto;html=1;strokeColor=#E6E6E6;fontSize=11;fontColor=#E6E6E6;startArrow=block;startFill=0;endArrow=none;endFill=0;exitX=0.5;exitY=1;exitDx=0;exitDy=0;entryX=0.5;entryY=0;entryDx=0;entryDy=0;" parent="1" source="tleChEqnYoVJlQqiPh8k-10" target="tleChEqnYoVJlQqiPh8k-20" edge="1">
          <mxGeometry relative="1" as="geometry">
            <mxPoint x="381" y="348" as="sourcePoint" />
            <mxPoint x="381" y="430" as="targetPoint" />
          </mxGeometry>
        </mxCell>
        <mxCell id="tleChEqnYoVJlQqiPh8k-23" value="LinuxButton" style="swimlane;fontStyle=0;align=center;verticalAlign=top;childLayout=stackLayout;horizontal=1;startSize=30;horizontalStack=0;resizeParent=1;resizeLast=0;collapsible=1;marginBottom=0;rounded=0;shadow=0;strokeWidth=1;strokeColor=#E6E6E6;fontColor=#E6E6E6;" parent="1" vertex="1">
          <mxGeometry x="150" y="420" width="120" height="40" as="geometry">
            <mxRectangle x="550" y="140" width="160" height="26" as="alternateBounds" />
          </mxGeometry>
        </mxCell>
        <mxCell id="tleChEqnYoVJlQqiPh8k-24" value="" style="line;html=1;strokeWidth=1;align=left;verticalAlign=middle;spacingTop=-1;spacingLeft=3;spacingRight=3;rotatable=0;labelPosition=right;points=[];portConstraint=eastwest;strokeColor=#E6E6E6;fontColor=#E6E6E6;" parent="tleChEqnYoVJlQqiPh8k-23" vertex="1">
          <mxGeometry y="30" width="120" height="8" as="geometry" />
        </mxCell>
        <mxCell id="tleChEqnYoVJlQqiPh8k-25" value="" style="edgeStyle=orthogonalEdgeStyle;rounded=0;orthogonalLoop=1;jettySize=auto;html=1;strokeColor=#E6E6E6;fontSize=11;fontColor=#E6E6E6;startArrow=block;startFill=0;endArrow=none;endFill=0;entryX=0.5;entryY=0;entryDx=0;entryDy=0;exitX=0.5;exitY=1;exitDx=0;exitDy=0;" parent="1" source="tleChEqnYoVJlQqiPh8k-6" target="tleChEqnYoVJlQqiPh8k-23" edge="1">
          <mxGeometry relative="1" as="geometry">
            <mxPoint x="110" y="348" as="sourcePoint" />
            <mxPoint x="80" y="430" as="targetPoint" />
          </mxGeometry>
        </mxCell>
        <mxCell id="lU3c3ebyKBskg7ODC_VG-1" value="&lt;b&gt;class&lt;/b&gt;&amp;nbsp;WindownFactory&lt;b&gt;&amp;nbsp;is&lt;/b&gt;&lt;br&gt;&lt;span style=&quot;white-space: pre;&quot;&gt; &lt;/span&gt;&lt;b&gt;method&lt;/b&gt;&amp;nbsp;createButton(): Button &lt;b&gt;is&lt;br&gt;&lt;span style=&quot;white-space: pre;&quot;&gt; &lt;/span&gt;&lt;span style=&quot;white-space: pre;&quot;&gt; &lt;/span&gt;return new&amp;nbsp;&lt;/b&gt;WindownButton()&lt;br&gt;&lt;span style=&quot;white-space: pre;&quot;&gt; &lt;/span&gt;&lt;b&gt;method&lt;/b&gt;&amp;nbsp;createCheckbox(): Checkbox&lt;b&gt;&amp;nbsp;is&lt;br&gt;&lt;span style=&quot;white-space: pre;&quot;&gt; &lt;/span&gt;&lt;span style=&quot;white-space: pre;&quot;&gt; &lt;/span&gt;return new &lt;/b&gt;WindownCheckbox()" style="shape=note;whiteSpace=wrap;html=1;backgroundOutline=1;darkOpacity=0.05;align=left;fontSize=11;size=10;fillColor=#000000;fontColor=#CCFF99;strokeColor=#E6E6E6;verticalAlign=top;" parent="1" vertex="1">
          <mxGeometry x="580" y="500" width="230" height="90" as="geometry" />
        </mxCell>
        <mxCell id="lU3c3ebyKBskg7ODC_VG-2" value="" style="endArrow=none;dashed=1;endFill=0;endSize=12;html=1;rounded=0;strokeColor=#E6E6E6;fontSize=11;fontColor=#E6E6E6;entryX=0;entryY=0.25;entryDx=0;entryDy=0;exitX=0;exitY=0;exitDx=0;exitDy=0;exitPerimeter=0;" parent="1" source="lU3c3ebyKBskg7ODC_VG-1" target="tleChEqnYoVJlQqiPh8k-1" edge="1">
          <mxGeometry width="160" relative="1" as="geometry">
            <mxPoint x="451" y="510" as="sourcePoint" />
            <mxPoint x="611" y="510" as="targetPoint" />
            <Array as="points">
              <mxPoint x="610" y="500" />
              <mxPoint x="610" y="408" />
            </Array>
          </mxGeometry>
        </mxCell>
        <mxCell id="lU3c3ebyKBskg7ODC_VG-5" value="LinuxFactory" style="swimlane;fontStyle=0;align=center;verticalAlign=top;childLayout=stackLayout;horizontal=1;startSize=40;horizontalStack=0;resizeParent=1;resizeLast=0;collapsible=1;marginBottom=0;rounded=0;shadow=0;strokeWidth=1;strokeColor=#E6E6E6;fontColor=#E6E6E6;" parent="1" vertex="1">
          <mxGeometry x="850" y="380" width="190" height="110" as="geometry">
            <mxRectangle x="550" y="140" width="160" height="26" as="alternateBounds" />
          </mxGeometry>
        </mxCell>
        <mxCell id="lU3c3ebyKBskg7ODC_VG-6" value="" style="line;html=1;strokeWidth=1;align=left;verticalAlign=middle;spacingTop=-1;spacingLeft=3;spacingRight=3;rotatable=0;labelPosition=right;points=[];portConstraint=eastwest;strokeColor=#E6E6E6;fontColor=#E6E6E6;" parent="lU3c3ebyKBskg7ODC_VG-5" vertex="1">
          <mxGeometry y="40" width="190" height="8" as="geometry" />
        </mxCell>
        <mxCell id="lU3c3ebyKBskg7ODC_VG-7" value="+ createButton(): Button" style="text;align=left;verticalAlign=top;spacingLeft=4;spacingRight=4;overflow=hidden;rotatable=0;points=[[0,0.5],[1,0.5]];portConstraint=eastwest;fontColor=#E6E6E6;strokeColor=#E6E6E6;" parent="lU3c3ebyKBskg7ODC_VG-5" vertex="1">
          <mxGeometry y="48" width="190" height="26" as="geometry" />
        </mxCell>
        <mxCell id="lU3c3ebyKBskg7ODC_VG-8" value="+ createCheckbox(): Checkbox" style="text;align=left;verticalAlign=top;spacingLeft=4;spacingRight=4;overflow=hidden;rotatable=0;points=[[0,0.5],[1,0.5]];portConstraint=eastwest;fontColor=#E6E6E6;strokeColor=#E6E6E6;" parent="lU3c3ebyKBskg7ODC_VG-5" vertex="1">
          <mxGeometry y="74" width="190" height="26" as="geometry" />
        </mxCell>
        <mxCell id="lU3c3ebyKBskg7ODC_VG-9" value="" style="edgeStyle=orthogonalEdgeStyle;rounded=0;orthogonalLoop=1;jettySize=auto;html=1;dashed=1;strokeColor=#E6E6E6;fontSize=11;fontColor=#E6E6E6;endArrow=none;endFill=0;startArrow=block;startFill=0;exitX=0.5;exitY=1;exitDx=0;exitDy=0;entryX=0.5;entryY=0;entryDx=0;entryDy=0;" parent="1" source="zZGIEH45paqE8WZlSoHH-1" target="lU3c3ebyKBskg7ODC_VG-5" edge="1">
          <mxGeometry relative="1" as="geometry">
            <mxPoint x="742" y="310" as="sourcePoint" />
            <mxPoint x="742" y="390" as="targetPoint" />
          </mxGeometry>
        </mxCell>
        <mxCell id="sSR2vNBXkiSIYOnaz0Ib-1" value="&lt;font&gt;&lt;b&gt;class&lt;/b&gt; Application &lt;b&gt;is&lt;/b&gt;&lt;br&gt;&lt;span style=&quot;&quot;&gt; &lt;/span&gt;&lt;span style=&quot;white-space: pre;&quot;&gt; &lt;/span&gt;gui: GUIFactory&lt;br&gt;&lt;br&gt;&lt;span style=&quot;&quot;&gt; &lt;/span&gt;&lt;span style=&quot;white-space: pre;&quot;&gt; &lt;/span&gt;Application(gui: GUIFactory)&amp;nbsp;&lt;b&gt;is&lt;/b&gt;&lt;br&gt;&lt;span style=&quot;&quot;&gt; &lt;/span&gt;&lt;span style=&quot;&quot;&gt; &lt;/span&gt;&lt;b&gt;&lt;span style=&quot;white-space: pre;&quot;&gt; &lt;/span&gt;&lt;span style=&quot;white-space: pre;&quot;&gt; &lt;/span&gt;this&lt;/b&gt;.gui = gui&lt;br&gt;&lt;br&gt;&lt;span style=&quot;&quot;&gt; &lt;/span&gt;&lt;b&gt;&lt;span style=&quot;white-space: pre;&quot;&gt; &lt;/span&gt;method&lt;/b&gt;&amp;nbsp;createUI()&amp;nbsp;&lt;b&gt;is&lt;br&gt;&lt;/b&gt;&lt;span style=&quot;white-space: pre;&quot;&gt; &lt;/span&gt;&lt;span style=&quot;white-space: pre;&quot;&gt; &lt;/span&gt;btn: Button&lt;br&gt;&lt;span style=&quot;font-weight: bold; white-space: pre;&quot;&gt; &lt;/span&gt;&lt;span style=&quot;font-weight: bold; white-space: pre;&quot;&gt; &lt;/span&gt;btn = gui.createButton()&lt;br&gt;&lt;span style=&quot;white-space: pre;&quot;&gt; &lt;/span&gt;&lt;span style=&quot;white-space: pre;&quot;&gt; &lt;/span&gt;...&lt;br&gt;&lt;/font&gt;&lt;b style=&quot;background-color: initial;&quot;&gt;&lt;br&gt;&lt;span style=&quot;white-space: pre;&quot;&gt; &lt;/span&gt;method&lt;/b&gt;&lt;span style=&quot;background-color: initial;&quot;&gt; main() &lt;/span&gt;&lt;b style=&quot;background-color: initial;&quot;&gt;is&lt;/b&gt;&lt;font&gt;&lt;b&gt;&lt;br&gt;&lt;/b&gt;&lt;/font&gt;&lt;blockquote style=&quot;margin: 0 0 0 40px; border: none; padding: 0px;&quot;&gt;&lt;font&gt;&lt;span style=&quot;font-weight: bold; white-space: pre;&quot;&gt; &lt;/span&gt;ui:&lt;b&gt; &lt;/b&gt;GUIFactory&lt;br&gt;&lt;/font&gt;&lt;span style=&quot;&quot;&gt;&lt;span style=&quot;font-weight: bold; white-space: pre;&quot;&gt; &lt;/span&gt;ui =&amp;nbsp;&lt;/span&gt;&lt;b style=&quot;&quot;&gt;switch&lt;/b&gt;&lt;span style=&quot;&quot;&gt;&amp;nbsp;( ConfigFileSystem.OS )&amp;nbsp;&lt;/span&gt;&lt;b style=&quot;&quot;&gt;is&lt;br&gt;&lt;/b&gt;&lt;span style=&quot;&quot;&gt;&lt;span style=&quot;white-space: pre;&quot;&gt; &lt;/span&gt;&lt;span style=&quot;white-space: pre;&quot;&gt; &lt;/span&gt;&lt;span style=&quot;white-space: pre;&quot;&gt; &lt;/span&gt;&quot;Windows&quot; :&amp;nbsp;&lt;/span&gt;&lt;b style=&quot;&quot;&gt;new&lt;/b&gt;&lt;span style=&quot;&quot;&gt;&amp;nbsp;WindownFactory()&lt;br&gt;&lt;/span&gt;&lt;span style=&quot;&quot;&gt;&lt;span style=&quot;white-space: pre;&quot;&gt; &lt;/span&gt;&lt;span style=&quot;white-space: pre;&quot;&gt; &lt;/span&gt;&lt;span style=&quot;white-space: pre;&quot;&gt; &lt;/span&gt;&quot;Linux&quot; :&amp;nbsp;&lt;/span&gt;&lt;b style=&quot;&quot;&gt;new&lt;/b&gt;&lt;span style=&quot;&quot;&gt;&amp;nbsp;LinuxFactory()&lt;br&gt;&lt;/span&gt;&lt;b style=&quot;&quot;&gt;&lt;span style=&quot;white-space: pre;&quot;&gt; &lt;/span&gt;&lt;span style=&quot;white-space: pre;&quot;&gt; &lt;/span&gt;&lt;span style=&quot;white-space: pre;&quot;&gt; &lt;/span&gt;else&lt;/b&gt;&lt;span style=&quot;&quot;&gt;&amp;nbsp;:&amp;nbsp;&lt;/span&gt;&lt;b style=&quot;&quot;&gt;throw new&lt;/b&gt;&lt;span style=&quot;&quot;&gt;&amp;nbsp;Exception(&quot;Unknown operating system.&quot;)&lt;br&gt;&lt;/span&gt;&lt;font&gt;&lt;br&gt;&lt;/font&gt;&lt;font&gt;&lt;span style=&quot;white-space: pre;&quot;&gt; &lt;/span&gt;app = &lt;b&gt;new&lt;/b&gt; Application(ui)&lt;/font&gt;&lt;/blockquote&gt;&lt;blockquote style=&quot;margin: 0 0 0 40px; border: none; padding: 0px;&quot;&gt;&lt;font&gt;&lt;span style=&quot;white-space: pre;&quot;&gt; &lt;/span&gt;app.createUI()&lt;br&gt;&lt;/font&gt;&lt;/blockquote&gt;&lt;font&gt;&lt;br&gt;&lt;/font&gt;" style="shape=note;whiteSpace=wrap;html=1;backgroundOutline=1;darkOpacity=0.05;align=left;fontSize=11;size=10;fillColor=#000000;fontColor=#CCFF99;strokeColor=#E6E6E6;verticalAlign=top;" parent="1" vertex="1">
          <mxGeometry x="460" y="610" width="360" height="290" as="geometry" />
        </mxCell>
        <mxCell id="Ngu8JIdxeSbWleaiAYU3-1" value="&lt;h1&gt;Abstract Factory&lt;/h1&gt;&lt;p&gt;Permite que você agrupe e produza&amp;nbsp; uma familia objetos relacionados.Os produtos de uma familia não são compativeis&amp;nbsp; com de outra familia.&lt;/p&gt;" style="text;html=1;strokeColor=#E6E6E6;fillColor=none;spacing=5;spacingTop=-20;whiteSpace=wrap;overflow=hidden;rounded=0;fontSize=11;fontColor=#E6E6E6;" parent="1" vertex="1">
          <mxGeometry x="505" y="10" width="315" height="120" as="geometry" />
        </mxCell>
      </root>
    </mxGraphModel>
  </diagram>
  <diagram id="I3kS1On3BU9ZxPluxb2h" name="Builder">
    <mxGraphModel dx="1022" dy="484" grid="1" gridSize="10" guides="1" tooltips="1" connect="1" arrows="1" fold="1" page="1" pageScale="1" pageWidth="850" pageHeight="1100" math="0" shadow="0">
      <root>
        <mxCell id="0" />
        <mxCell id="1" parent="0" />
        <mxCell id="M6ciEMqyb9JUebMnMoU7-1" value="&lt;h1&gt;Builder&lt;/h1&gt;&lt;p&gt;&lt;font style=&quot;font-size: 12px;&quot;&gt;&lt;b&gt;Propósito:&lt;/b&gt;&lt;/font&gt;&lt;/p&gt;&lt;p&gt;Instanciar objetos complexos passo a passo, não permitindo seu uso pelo cliente, até estar completo. Um objeto é complexo quando é possível produzir diferentes tipos dele, usando o mesmo construtor.&lt;/p&gt;&lt;p&gt;&lt;b&gt;&lt;font style=&quot;font-size: 12px;&quot;&gt;Problema que se propõe resolver:&lt;/font&gt;&lt;/b&gt;&lt;/p&gt;&lt;p&gt;Instanciacão de objetos com várias atributos a serem preenchidos, onde cada conjunto de atributos informados gera uma variacão do &quot;tipo&quot; do objeto.&lt;/p&gt;&lt;p&gt;&lt;br&gt;&lt;/p&gt;&lt;p&gt;&lt;b&gt;&lt;font style=&quot;font-size: 12px;&quot;&gt;Solucões comuns:&lt;/font&gt;&lt;/b&gt;&lt;/p&gt;&lt;p&gt;S1. Um construtor com todos os atributos possíveis, para os diversos &quot;tipos&quot; deste objeto.&lt;/p&gt;&lt;p&gt;P1. Se a linguagem não permitir, tipos defaults com alias, como no Kotlin, teremos instaciacões informando parametros desnecessários entre os &quot;tipos&quot; desejados.&lt;/p&gt;&lt;p&gt;S2. Definir um tipo base, e gerar subclasses apartir dele, conforme a necessidade, para cada tipo desejado.&lt;/p&gt;&lt;p&gt;P2. Acabará gerando uma grande hierarquia de classes.&lt;/p&gt;&lt;p&gt;&lt;b&gt;&lt;font style=&quot;font-size: 12px;&quot;&gt;Proposta:&lt;/font&gt;&lt;/b&gt;&lt;/p&gt;&lt;p&gt;Definir o processo de construcão do objeto, em uma outra classe, comumente chamada de Builder.&lt;br&gt;&lt;/p&gt;" style="text;html=1;strokeColor=#E6E6E6;fillColor=none;spacing=5;spacingTop=-20;whiteSpace=wrap;overflow=hidden;rounded=0;fontSize=11;fontColor=#E6E6E6;" parent="1" vertex="1">
          <mxGeometry x="10" y="10" width="315" height="460" as="geometry" />
        </mxCell>
        <mxCell id="rZWGvsLs8HfumIUdatL5-1" value="&lt;&lt;interface&gt;&gt;&#xa;Builder" style="swimlane;fontStyle=1;align=center;verticalAlign=top;childLayout=stackLayout;horizontal=1;startSize=40;horizontalStack=0;resizeParent=1;resizeParentMax=0;resizeLast=0;collapsible=1;marginBottom=0;strokeColor=#E6E6E6;fontColor=#E6E6E6;" parent="1" vertex="1">
          <mxGeometry x="440" y="220" width="135" height="120" as="geometry" />
        </mxCell>
        <mxCell id="rZWGvsLs8HfumIUdatL5-3" value="" style="line;strokeWidth=1;fillColor=none;align=left;verticalAlign=middle;spacingTop=-1;spacingLeft=3;spacingRight=3;rotatable=0;labelPosition=right;points=[];portConstraint=eastwest;strokeColor=inherit;fontColor=#E6E6E6;" parent="rZWGvsLs8HfumIUdatL5-1" vertex="1">
          <mxGeometry y="40" width="135" height="8" as="geometry" />
        </mxCell>
        <mxCell id="rZWGvsLs8HfumIUdatL5-4" value="+ reset()&#xa;+ buildStepA()&#xa;+ buildStepB()&#xa;+ buildStepZ()&#xa;" style="text;strokeColor=none;fillColor=none;align=left;verticalAlign=top;spacingLeft=4;spacingRight=4;overflow=hidden;rotatable=0;points=[[0,0.5],[1,0.5]];portConstraint=eastwest;fontColor=#E6E6E6;" parent="rZWGvsLs8HfumIUdatL5-1" vertex="1">
          <mxGeometry y="48" width="135" height="72" as="geometry" />
        </mxCell>
        <mxCell id="l3HsiN5Vnn1ciLPgWp9q-4" style="edgeStyle=orthogonalEdgeStyle;rounded=0;orthogonalLoop=1;jettySize=auto;html=1;entryX=0.5;entryY=1;entryDx=0;entryDy=0;endArrow=block;endFill=0;dashed=1;exitX=0.5;exitY=0;exitDx=0;exitDy=0;" edge="1" parent="1" source="l3HsiN5Vnn1ciLPgWp9q-6" target="rZWGvsLs8HfumIUdatL5-1">
          <mxGeometry relative="1" as="geometry">
            <mxPoint x="508" y="390" as="sourcePoint" />
          </mxGeometry>
        </mxCell>
        <mxCell id="l3HsiN5Vnn1ciLPgWp9q-14" style="edgeStyle=orthogonalEdgeStyle;rounded=0;orthogonalLoop=1;jettySize=auto;html=1;entryX=0.5;entryY=0;entryDx=0;entryDy=0;endArrow=open;endFill=0;" edge="1" parent="1" source="l3HsiN5Vnn1ciLPgWp9q-6" target="l3HsiN5Vnn1ciLPgWp9q-10">
          <mxGeometry relative="1" as="geometry" />
        </mxCell>
        <mxCell id="l3HsiN5Vnn1ciLPgWp9q-6" value="Builder1" style="swimlane;fontStyle=1;align=center;verticalAlign=top;childLayout=stackLayout;horizontal=1;startSize=26;horizontalStack=0;resizeParent=1;resizeParentMax=0;resizeLast=0;collapsible=1;marginBottom=0;" vertex="1" parent="1">
          <mxGeometry x="427.5" y="400" width="160" height="150" as="geometry" />
        </mxCell>
        <mxCell id="l3HsiN5Vnn1ciLPgWp9q-7" value="- product: Product1" style="text;strokeColor=none;fillColor=none;align=left;verticalAlign=top;spacingLeft=4;spacingRight=4;overflow=hidden;rotatable=0;points=[[0,0.5],[1,0.5]];portConstraint=eastwest;" vertex="1" parent="l3HsiN5Vnn1ciLPgWp9q-6">
          <mxGeometry y="26" width="160" height="26" as="geometry" />
        </mxCell>
        <mxCell id="l3HsiN5Vnn1ciLPgWp9q-8" value="" style="line;strokeWidth=1;fillColor=none;align=left;verticalAlign=middle;spacingTop=-1;spacingLeft=3;spacingRight=3;rotatable=0;labelPosition=right;points=[];portConstraint=eastwest;strokeColor=inherit;" vertex="1" parent="l3HsiN5Vnn1ciLPgWp9q-6">
          <mxGeometry y="52" width="160" height="8" as="geometry" />
        </mxCell>
        <mxCell id="l3HsiN5Vnn1ciLPgWp9q-9" value="+ reset()&#xa;+ buildStepA()&#xa;+ buildStepB()&#xa;+ buildStepZ()&#xa;+ build(): Product1&#xa;" style="text;strokeColor=none;fillColor=none;align=left;verticalAlign=top;spacingLeft=4;spacingRight=4;overflow=hidden;rotatable=0;points=[[0,0.5],[1,0.5]];portConstraint=eastwest;" vertex="1" parent="l3HsiN5Vnn1ciLPgWp9q-6">
          <mxGeometry y="60" width="160" height="90" as="geometry" />
        </mxCell>
        <mxCell id="l3HsiN5Vnn1ciLPgWp9q-10" value="Product1" style="swimlane;fontStyle=1;align=center;verticalAlign=top;childLayout=stackLayout;horizontal=1;startSize=26;horizontalStack=0;resizeParent=1;resizeParentMax=0;resizeLast=0;collapsible=1;marginBottom=0;" vertex="1" parent="1">
          <mxGeometry x="427.5" y="600" width="160" height="34" as="geometry" />
        </mxCell>
        <mxCell id="l3HsiN5Vnn1ciLPgWp9q-12" value="" style="line;strokeWidth=1;fillColor=none;align=left;verticalAlign=middle;spacingTop=-1;spacingLeft=3;spacingRight=3;rotatable=0;labelPosition=right;points=[];portConstraint=eastwest;strokeColor=inherit;" vertex="1" parent="l3HsiN5Vnn1ciLPgWp9q-10">
          <mxGeometry y="26" width="160" height="8" as="geometry" />
        </mxCell>
        <mxCell id="l3HsiN5Vnn1ciLPgWp9q-19" style="edgeStyle=orthogonalEdgeStyle;rounded=0;orthogonalLoop=1;jettySize=auto;html=1;entryX=1;entryY=0.5;entryDx=0;entryDy=0;endArrow=open;endFill=0;" edge="1" parent="1" source="l3HsiN5Vnn1ciLPgWp9q-15" target="rZWGvsLs8HfumIUdatL5-4">
          <mxGeometry relative="1" as="geometry" />
        </mxCell>
        <mxCell id="l3HsiN5Vnn1ciLPgWp9q-15" value="Director" style="swimlane;fontStyle=1;align=center;verticalAlign=top;childLayout=stackLayout;horizontal=1;startSize=26;horizontalStack=0;resizeParent=1;resizeParentMax=0;resizeLast=0;collapsible=1;marginBottom=0;" vertex="1" parent="1">
          <mxGeometry x="660" y="244" width="160" height="120" as="geometry" />
        </mxCell>
        <mxCell id="l3HsiN5Vnn1ciLPgWp9q-16" value="- builder: Builder" style="text;strokeColor=none;fillColor=none;align=left;verticalAlign=top;spacingLeft=4;spacingRight=4;overflow=hidden;rotatable=0;points=[[0,0.5],[1,0.5]];portConstraint=eastwest;" vertex="1" parent="l3HsiN5Vnn1ciLPgWp9q-15">
          <mxGeometry y="26" width="160" height="26" as="geometry" />
        </mxCell>
        <mxCell id="l3HsiN5Vnn1ciLPgWp9q-17" value="" style="line;strokeWidth=1;fillColor=none;align=left;verticalAlign=middle;spacingTop=-1;spacingLeft=3;spacingRight=3;rotatable=0;labelPosition=right;points=[];portConstraint=eastwest;strokeColor=inherit;" vertex="1" parent="l3HsiN5Vnn1ciLPgWp9q-15">
          <mxGeometry y="52" width="160" height="8" as="geometry" />
        </mxCell>
        <mxCell id="l3HsiN5Vnn1ciLPgWp9q-18" value="+ Director(builder)&#xa;+ changeBuilder(builder)&#xa;+ make(type)&#xa;" style="text;strokeColor=none;fillColor=none;align=left;verticalAlign=top;spacingLeft=4;spacingRight=4;overflow=hidden;rotatable=0;points=[[0,0.5],[1,0.5]];portConstraint=eastwest;" vertex="1" parent="l3HsiN5Vnn1ciLPgWp9q-15">
          <mxGeometry y="60" width="160" height="60" as="geometry" />
        </mxCell>
        <mxCell id="l3HsiN5Vnn1ciLPgWp9q-22" style="edgeStyle=orthogonalEdgeStyle;rounded=0;orthogonalLoop=1;jettySize=auto;html=1;entryX=0.5;entryY=0;entryDx=0;entryDy=0;endArrow=open;endFill=0;exitX=1;exitY=0.5;exitDx=0;exitDy=0;" edge="1" parent="1" source="l3HsiN5Vnn1ciLPgWp9q-20" target="l3HsiN5Vnn1ciLPgWp9q-15">
          <mxGeometry relative="1" as="geometry">
            <mxPoint x="750" y="170" as="sourcePoint" />
          </mxGeometry>
        </mxCell>
        <mxCell id="l3HsiN5Vnn1ciLPgWp9q-23" style="edgeStyle=orthogonalEdgeStyle;rounded=0;orthogonalLoop=1;jettySize=auto;html=1;endArrow=open;endFill=0;exitX=0;exitY=0.5;exitDx=0;exitDy=0;dashed=1;entryX=0;entryY=0;entryDx=0;entryDy=0;" edge="1" parent="1" source="l3HsiN5Vnn1ciLPgWp9q-20" target="l3HsiN5Vnn1ciLPgWp9q-6">
          <mxGeometry relative="1" as="geometry">
            <mxPoint x="410" y="440" as="targetPoint" />
            <Array as="points">
              <mxPoint x="390" y="177" />
              <mxPoint x="390" y="400" />
            </Array>
          </mxGeometry>
        </mxCell>
        <mxCell id="l3HsiN5Vnn1ciLPgWp9q-20" value="Client" style="swimlane;fontStyle=1;align=center;verticalAlign=top;childLayout=stackLayout;horizontal=1;startSize=26;horizontalStack=0;resizeParent=1;resizeParentMax=0;resizeLast=0;collapsible=1;marginBottom=0;" vertex="1" parent="1">
          <mxGeometry x="600" y="160" width="90" height="34" as="geometry" />
        </mxCell>
        <mxCell id="l3HsiN5Vnn1ciLPgWp9q-21" value="" style="line;strokeWidth=1;fillColor=none;align=left;verticalAlign=middle;spacingTop=-1;spacingLeft=3;spacingRight=3;rotatable=0;labelPosition=right;points=[];portConstraint=eastwest;strokeColor=inherit;" vertex="1" parent="l3HsiN5Vnn1ciLPgWp9q-20">
          <mxGeometry y="26" width="90" height="8" as="geometry" />
        </mxCell>
        <mxCell id="xJi3bgBFAOg8sminCq8i-1" value="&lt;div&gt;builder.reset()&lt;/div&gt;&lt;div&gt;&lt;b&gt;if&lt;/b&gt; (type == &quot;simple&quot;) {&lt;/div&gt;&lt;div&gt;&amp;nbsp;&amp;nbsp; builder.buildStepA()&lt;br&gt;&lt;/div&gt;&lt;div&gt;} else {&lt;/div&gt;&lt;div&gt;&amp;nbsp;&amp;nbsp; builder.buildStepB()&lt;/div&gt;&lt;div&gt;&amp;nbsp;&amp;nbsp; builder.buildStepZ()&lt;br&gt;&lt;/div&gt;&lt;div&gt;}&lt;br&gt;&lt;/div&gt;" style="shape=note;whiteSpace=wrap;html=1;backgroundOutline=1;darkOpacity=0.05;align=left;fontSize=11;size=10;fillColor=#000000;fontColor=#CCFF99;strokeColor=#E6E6E6;verticalAlign=top;" vertex="1" parent="1">
          <mxGeometry x="660" y="390" width="140" height="97" as="geometry" />
        </mxCell>
        <mxCell id="xJi3bgBFAOg8sminCq8i-3" value="" style="edgeStyle=orthogonalEdgeStyle;html=1;verticalAlign=bottom;endArrow=open;endSize=8;strokeColor=#CCFF99;rounded=0;dashed=1;fontColor=#E6E6E6;entryX=0;entryY=0.5;entryDx=0;entryDy=0;entryPerimeter=0;exitX=-0.012;exitY=0.683;exitDx=0;exitDy=0;exitPerimeter=0;" edge="1" source="l3HsiN5Vnn1ciLPgWp9q-18" parent="1" target="xJi3bgBFAOg8sminCq8i-1">
          <mxGeometry relative="1" as="geometry">
            <mxPoint x="720" y="420" as="targetPoint" />
            <mxPoint x="610" y="340" as="sourcePoint" />
            <Array as="points">
              <mxPoint x="658" y="350" />
              <mxPoint x="640" y="350" />
              <mxPoint x="640" y="439" />
            </Array>
          </mxGeometry>
        </mxCell>
        <mxCell id="xJi3bgBFAOg8sminCq8i-4" value="&lt;div&gt;Builder b = new Builder1()&lt;/div&gt;&lt;div&gt;Director d = new Director(b)&lt;/div&gt;&lt;div&gt;d.make(&quot;simple&quot;)&lt;/div&gt;&lt;div&gt;Product1 p = b.build()&lt;br&gt;&lt;/div&gt;" style="shape=note;whiteSpace=wrap;html=1;backgroundOutline=1;darkOpacity=0.05;align=left;fontSize=11;size=10;fillColor=#000000;fontColor=#CCFF99;strokeColor=#E6E6E6;verticalAlign=top;" vertex="1" parent="1">
          <mxGeometry x="575" y="60" width="140" height="70" as="geometry" />
        </mxCell>
      </root>
    </mxGraphModel>
  </diagram>
</mxfile>
